# xmcd
#
# Track frame offsets:
#	180
#	12569
#	25679
#	36865
#	51472
#	63266
#	76845
#	90159
#	101342
#	113026
#	126158
#	139286
#	150721
#	164110
#	176791
#	189037
#
# Disc length: 2697 seconds
# Revision: 1
# Processed by: cddbd v1.5.2PL0 Copyright (c) Steve Scherf et al.
# Submitted via: dBpowerAMP V12.0
#
DISCID=cb0a8710
DTITLE=Various Artist - Blues Bandits [CD3 of 3)
DYEAR=2005
DGENRE=Blues
TTITLE0=Big Joe Turner - Jumin' at the Jubilee 1950
TTITLE1=Arthur Big Boy Crudup - Rock me Mama 1944
TTITLE2=B. B. King - She's Dynamite 1951
TTITLE3=Big Bill Broonzy - Southern Flood Blues 1937
TTITLE4=Lonnie Johnson - Working Man Blues 1947
TTITLE5=Big Boy Crudup - Katie May 1947
TTITLE6=Leadbelly - Pick a Ball of Cotton 1940
TTITLE7=Brownie McGhee - Got ti find My little Woman 1941
TTITLE8=John Lee Hooker - Love me Baby 1953
TTITLE9=Muddy Waters - She moves Me 1959
TTITLE10=Dr. Clayton - 41 Blues 1941
TTITLE11=Bukka White - Aberdeen Missisippi Blues 1940
TTITLE12=B. B. King - Three O'clock Blues 1952
TTITLE13=Blind Boy Fuller and Sonny Terry - Shake down Blues 1940
TTITLE14=Big Joe Williams - His Spirit lives on 1945
TTITLE15=Champion Jack Dupree - Cabbage Grens no. 1 1940
EXTD=
EXTT0=
EXTT1=
EXTT2=
EXTT3=
EXTT4=
EXTT5=
EXTT6=
EXTT7=
EXTT8=
EXTT9=
EXTT10=
EXTT11=
EXTT12=
EXTT13=
EXTT14=
EXTT15=
PLAYORDER=
